<svg width="100" height="44" viewBox="0 0 100 44" fill="none" xmlns="http://www.w3.org/2000/svg">
<path d="M34.1265 28.9956C33.539 29.6385 32.7892 29.9566 31.8768 29.9566C30.9646 29.9566 30.2148 29.6385 29.6273 28.9956C29.04 28.3595 28.7462 27.5024 28.7462 26.4246C28.7462 25.3468 29.04 24.4899 29.6273 23.8535C30.2148 23.2108 30.9646 22.8926 31.8768 22.8926C32.7892 22.8926 33.539 23.2108 34.1265 23.8535C34.7139 24.4899 35.0075 25.3468 35.0075 26.4246C35.0075 27.5024 34.7139 28.3595 34.1265 28.9956ZM37.8132 22.9706C37.2821 21.9837 36.5447 21.2176 35.6074 20.6722C34.6763 20.1268 33.6328 19.8541 32.4955 19.8541C30.8022 19.8541 29.5149 20.406 28.6338 21.5163V20.0423H25.2344V37.4101H28.7962V31.4563C29.6899 32.4823 30.927 32.9951 32.4955 32.9951C33.6328 32.9951 34.6763 32.7223 35.6074 32.1771C36.5447 31.6317 37.2821 30.8656 37.8132 29.8787C38.3443 28.8853 38.6131 27.7361 38.6131 26.4246C38.6131 25.1131 38.3443 23.9638 37.8132 22.9706Z" fill="#0095FF"/>
<path d="M47.9488 29.58C47.5552 29.8981 47.0741 30.054 46.5116 30.054C46.0242 30.054 45.6493 29.9112 45.3805 29.6126C45.1181 29.3203 44.9806 28.9047 44.9806 28.3725V23.1718H48.0426V20.3281H44.9806V17.2181H41.4188V20.3281H39.5254V23.1718H41.4188V28.4178C41.4188 29.9177 41.8187 31.0604 42.6186 31.8329C43.4185 32.6056 44.5495 32.9952 46.0117 32.9952C46.5742 32.9952 47.1115 32.9301 47.6176 32.7939C48.1301 32.6575 48.5612 32.4562 48.9112 32.1902L47.9488 29.58Z" fill="#0095FF"/>
<path d="M50.917 20.0423V32.8068H54.4788V20.0423H50.917ZM54.2977 14.7054C53.8853 14.3224 53.354 14.1341 52.698 14.1341C52.0481 14.1341 51.5106 14.3355 51.1045 14.7314C50.6921 15.1275 50.4859 15.6144 50.4859 16.1987C50.4859 16.7831 50.6921 17.2765 51.1045 17.6726C51.5106 18.0687 52.0481 18.2634 52.698 18.2634C53.354 18.2634 53.8853 18.0622 54.2977 17.6596C54.7101 17.2571 54.9163 16.7441 54.9163 16.1274C54.9163 15.556 54.7101 15.082 54.2977 14.7054Z" fill="#0095FF"/>
<path d="M65.8891 28.9957C65.3018 29.6385 64.552 29.9567 63.6397 29.9567C62.721 29.9567 61.9711 29.6385 61.3775 28.9957C60.7839 28.3595 60.484 27.5024 60.484 26.4247C60.484 25.3469 60.7839 24.4899 61.3775 23.8535C61.9711 23.2108 62.721 22.8926 63.6397 22.8926C64.552 22.8926 65.3018 23.2108 65.8891 23.8535C66.4704 24.4899 66.7641 25.3469 66.7641 26.4247C66.7641 27.5024 66.4704 28.3595 65.8891 28.9957ZM69.5072 23.029C68.9261 22.0357 68.1263 21.2565 67.1077 20.6981C66.0892 20.1333 64.9331 19.8541 63.6397 19.8541C62.346 19.8541 61.1838 20.1333 60.1528 20.6981C59.1281 21.2565 58.3219 22.0357 57.7471 23.029C57.1658 24.0289 56.8784 25.1585 56.8784 26.4247C56.8784 27.6907 57.1658 28.8205 57.7471 29.8203C58.3219 30.8135 59.1281 31.5927 60.1528 32.151C61.1838 32.716 62.346 32.9952 63.6397 32.9952C64.9331 32.9952 66.0892 32.716 67.1077 32.151C68.1263 31.5927 68.9261 30.8135 69.5072 29.8203C70.0821 28.8205 70.3696 27.6907 70.3696 26.4247C70.3696 25.1585 70.0821 24.0289 69.5072 23.029Z" fill="#0095FF"/>
<path d="M83.8983 21.2759C82.9672 20.3281 81.7363 19.8541 80.2115 19.8541C79.3741 19.8541 78.6056 19.9969 77.9056 20.2891C77.2059 20.5878 76.6184 20.9967 76.1497 21.5357V20.0423H72.7442V32.8068H76.306V26.4959C76.306 25.3598 76.5747 24.4962 77.1058 23.9185C77.6432 23.3471 78.3556 23.055 79.2555 23.055C80.0615 23.055 80.68 23.3017 81.1051 23.8015C81.53 24.3015 81.7424 25.0547 81.7424 26.0674V32.8068H85.3042V25.4961C85.3042 23.6328 84.8356 22.2238 83.8983 21.2759Z" fill="#0095FF"/>
<path d="M97.7518 26.7558C97.2769 26.2363 96.7208 25.8727 96.0835 25.678C95.4461 25.4767 94.6211 25.2949 93.6151 25.1195C92.7152 24.9768 92.0655 24.8274 91.6531 24.6716C91.2406 24.5093 91.0344 24.2368 91.0344 23.8406C91.0344 23.49 91.2281 23.2043 91.6094 22.9836C91.9904 22.7629 92.5591 22.6524 93.3215 22.6524C94.5962 22.6524 95.7772 22.9706 96.8582 23.6003L98.0456 20.9708C97.4832 20.6203 96.7709 20.3476 95.9147 20.1463C95.0524 19.9515 94.19 19.8541 93.3215 19.8541C92.1467 19.8541 91.1344 20.0294 90.2721 20.3736C89.4097 20.7241 88.7536 21.2111 88.3099 21.8344C87.8601 22.4576 87.635 23.1718 87.635 23.9834C87.635 24.9443 87.8726 25.691 88.3537 26.2104C88.8348 26.7362 89.3973 27.0998 90.0533 27.3012C90.7094 27.5089 91.5406 27.6907 92.5467 27.8464C93.3963 27.957 94.0275 28.0932 94.44 28.2491C94.8524 28.4114 95.0524 28.671 95.0524 29.0347C95.0524 29.8074 94.3025 30.1969 92.7966 30.1969C92.0466 30.1969 91.2907 30.0799 90.5096 29.8526C89.7347 29.6255 89.0723 29.3268 88.5224 28.9632L87.3351 31.6187C87.9161 32.0147 88.691 32.3458 89.6659 32.6056C90.6407 32.8653 91.6405 32.9952 92.6591 32.9952C93.8589 32.9952 94.8962 32.8263 95.7772 32.4887C96.652 32.1447 97.3144 31.6706 97.7706 31.0474C98.2267 30.437 98.458 29.7294 98.458 28.9372C98.458 28.0088 98.2205 27.2816 97.7518 26.7558Z" fill="#0095FF"/>
<path d="M40.6252 41.851C40.1754 42.286 39.5691 42.5068 38.8193 42.5068H37.2197V37.6373H38.8193C39.5691 37.6373 40.1754 37.858 40.6252 38.2931C41.0751 38.7346 41.3001 39.3254 41.3001 40.072C41.3001 40.8187 41.0751 41.416 40.6252 41.851ZM42.5436 38.0074C42.1937 37.4165 41.7062 36.9621 41.0751 36.6375C40.4503 36.3128 39.7254 36.1505 38.9005 36.1505H35.4699V44H38.9005C39.7254 44 40.4503 43.8377 41.0751 43.5131C41.7062 43.1819 42.1937 42.7275 42.5436 42.1366C42.8936 41.5459 43.0685 40.8577 43.0685 40.072C43.0685 39.2865 42.8936 38.5982 42.5436 38.0074Z" fill="white"/>
<path d="M51.9543 42.5392V40.7213H55.4599V39.3124H51.9543V37.6049H55.9223V36.1505H50.2171V44H56.066V42.5392H51.9543Z" fill="white"/>
<path d="M67.6576 40.0007C67.3828 40.2344 66.9827 40.3512 66.4579 40.3512H65.0332V37.6308H66.4579C66.9827 37.6308 67.3828 37.7477 67.6576 37.9815C67.9326 38.2151 68.07 38.5529 68.07 38.9943C68.07 39.4293 67.9326 39.7669 67.6576 40.0007ZM69.4385 37.4816C69.1698 37.053 68.7949 36.7284 68.3013 36.4945C67.8076 36.2608 67.2265 36.1505 66.5579 36.1505H63.2834V44H65.0332V41.8315H66.5579C67.2265 41.8315 67.8076 41.7211 68.3013 41.4938C68.7949 41.2667 69.1698 40.9355 69.4385 40.507C69.7073 40.072 69.8384 39.5721 69.8384 38.9943C69.8384 38.4163 69.7073 37.9101 69.4385 37.4816Z" fill="white"/>
<path d="M75.8498 36.1505V37.6308H78.268V44H80.0179V37.6308H82.436V36.1505H75.8498Z" fill="white"/>
<path d="M94.3838 36.1505V39.241H90.9532V36.1505H89.2035V44H90.9532V40.7798H94.3838V44H96.1335V36.1505H94.3838Z" fill="white"/>
<path d="M18.5026 21.8913C18.9737 22.7582 19.1931 23.5881 19.1931 24.5026C19.1931 25.4619 18.9855 26.284 18.558 27.0161C18.1212 27.7695 17.5382 28.3396 16.7694 28.7695C15.9515 29.2301 15.0347 29.4513 13.9552 29.4513C12.8711 29.4513 11.9484 29.2293 11.1338 28.7722C10.3532 28.3401 9.77184 27.7718 9.34021 27.0269C8.917 26.2964 8.71131 25.4705 8.71131 24.5026C8.71131 23.5347 8.917 22.7092 9.34021 21.9785C9.66876 21.4111 10.0744 20.9552 10.5821 20.5833L10.7251 20.4788L10.857 20.3601C10.8681 20.35 12.2605 19.1063 14.4774 17.5096L14.8382 17.2497L15.4743 17.947C16.3219 18.8777 17.895 20.7731 18.5026 21.8913ZM90.3984 0.205853L90.5054 5.15934C47.4548 1.61734 16.089 12.2484 15.7545 12.4191L15.7099 12.3542C14.862 11.2287 11.7931 7.24851 8.38038 3.7233C6.69227 1.9794 3.97148 0.456543 0.97682 3.8147e-06C0.97682 3.8147e-06 -3.99521e-05 3.14615 1.22553e-09 3.14615C1.952 3.56135 4.04192 4.30885 5.59483 5.64372C7.42062 7.21313 8.62621 9.32536 10.0819 11.2205C10.2044 11.3798 12.4603 14.5318 12.4805 14.5172C10.056 16.2637 8.56252 17.6077 8.56252 17.6077C7.65023 18.2764 6.91285 19.1075 6.33796 20.1008C5.58184 21.4059 5.207 22.8732 5.207 24.5028C5.207 26.1325 5.58184 27.5998 6.33796 28.9047C7.0942 30.2098 8.13135 31.2356 9.46867 31.9758C10.7996 32.7223 12.293 33.0925 13.9553 33.0925C15.6112 33.0925 17.1047 32.7223 18.4294 31.9758C19.7542 31.2356 20.7977 30.2098 21.5538 28.9047C22.3161 27.5998 22.6973 26.1325 22.6973 24.5028C22.6973 22.8732 22.2762 21.4301 21.5538 20.1008C20.5024 18.1661 18.0178 15.4422 18.0178 15.4422C18.0178 15.4422 47.3286 6.06923 90.5375 6.64681L90.6442 11.5793L100 5.67199L90.3984 0.205853Z" fill="#0095FF"/>
</svg>
